<svg xmlns="http://www.w3.org/2000/svg">
	<symbol id="flag" width="18" height="19" viewBox="0 0 18 19" fill="none"><path fill="currentColor" d="M13.757 5.172 9.162 16.595 7.39 11.419l-5.142-1.87 11.508-4.377Z" opacity=".2"/></symbol>
	<symbol id="whatsapp" width="24" height="24" fill="none"><path fill="#fff" d="m2 22 1.413-5.135a9.859 9.859 0 0 1-1.33-4.955C2.087 6.446 6.554 2 12.043 2a9.92 9.92 0 0 1 7.044 2.907A9.827 9.827 0 0 1 22 11.917c-.002 5.465-4.47 9.911-9.958 9.911h-.005a9.987 9.987 0 0 1-4.758-1.206L2 22Z"/><path fill="url(#a)" d="M12.503 3C7.815 3 4.002 6.811 4 11.496a8.475 8.475 0 0 0 1.3 4.522l.202.322-.86 3.135 3.218-.844.31.184A8.489 8.489 0 0 0 12.498 20h.003c4.685 0 8.498-3.812 8.5-8.497a8.443 8.443 0 0 0-2.487-6.011A8.444 8.444 0 0 0 12.503 3Z"/><path fill="#fff" fill-rule="evenodd" d="M9.543 7.418c-.185-.397-.379-.406-.554-.412L8.517 7c-.164 0-.43.06-.656.299-.225.239-.861.816-.861 1.99 0 1.176.882 2.31 1.005 2.47.122.16 1.702 2.647 4.203 3.604 2.078.795 2.5.637 2.952.598.451-.04 1.456-.578 1.66-1.136.206-.557.206-1.035.144-1.135-.061-.1-.225-.159-.471-.278-.247-.12-1.456-.697-1.682-.777-.225-.08-.39-.12-.553.12-.165.238-.635.776-.78.935-.143.16-.286.18-.532.06-.247-.119-1.039-.371-1.979-1.185-.731-.633-1.225-1.414-1.369-1.653-.144-.239-.015-.368.108-.487.11-.107.246-.279.37-.418.123-.14.163-.24.245-.398.082-.16.041-.3-.02-.418-.062-.12-.54-1.3-.758-1.773Z" clip-rule="evenodd"/><defs><linearGradient id="a" x1="12.327" x2="12.413" y1="4.02" y2="18.548" gradientUnits="userSpaceOnUse"><stop stop-color="#57D163"/><stop offset="1" stop-color="#23B33A"/></linearGradient></defs></symbol>
	<symbol id="whatsapp" width="24" height="24" fill="none"><path fill="#fff" d="m2 22 1.413-5.135a9.859 9.859 0 0 1-1.33-4.955C2.087 6.446 6.554 2 12.043 2a9.92 9.92 0 0 1 7.044 2.907A9.827 9.827 0 0 1 22 11.917c-.002 5.465-4.47 9.911-9.958 9.911h-.005a9.987 9.987 0 0 1-4.758-1.206L2 22Z"/><path fill="url(#a)" d="M12.503 3C7.815 3 4.002 6.811 4 11.496a8.475 8.475 0 0 0 1.3 4.522l.202.322-.86 3.135 3.218-.844.31.184A8.489 8.489 0 0 0 12.498 20h.003c4.685 0 8.498-3.812 8.5-8.497a8.443 8.443 0 0 0-2.487-6.011A8.444 8.444 0 0 0 12.503 3Z"/><path fill="#fff" fill-rule="evenodd" d="M9.543 7.418c-.185-.397-.379-.406-.554-.412L8.517 7c-.164 0-.43.06-.656.299-.225.239-.861.816-.861 1.99 0 1.176.882 2.31 1.005 2.47.122.16 1.702 2.647 4.203 3.604 2.078.795 2.5.637 2.952.598.451-.04 1.456-.578 1.66-1.136.206-.557.206-1.035.144-1.135-.061-.1-.225-.159-.471-.278-.247-.12-1.456-.697-1.682-.777-.225-.08-.39-.12-.553.12-.165.238-.635.776-.78.935-.143.16-.286.18-.532.06-.247-.119-1.039-.371-1.979-1.185-.731-.633-1.225-1.414-1.369-1.653-.144-.239-.015-.368.108-.487.11-.107.246-.279.37-.418.123-.14.163-.24.245-.398.082-.16.041-.3-.02-.418-.062-.12-.54-1.3-.758-1.773Z" clip-rule="evenodd"/><defs><linearGradient id="a" x1="12.327" x2="12.413" y1="4.02" y2="18.548" gradientUnits="userSpaceOnUse"><stop stop-color="#57D163"/><stop offset="1" stop-color="#23B33A"/></linearGradient></defs></symbol>
	<symbol id="phone" viewBox="0 0 20 20" fill="none">
		<path d="M18.9995 14.7278V17.287C19.0004 17.5245 18.9517 17.7597 18.8563 17.9774C18.7609 18.1951 18.6211 18.3905 18.4457 18.5511C18.2702 18.7117 18.0632 18.834 17.8376 18.9101C17.6121 18.9862 17.3732 19.0145 17.1361 18.9931C14.5059 18.7078 11.9794 17.8109 9.75957 16.3742C7.69433 15.0644 5.94337 13.3169 4.63104 11.2558C3.18648 9.03034 2.28751 6.49657 2.00694 3.85976C1.98558 3.62386 2.01367 3.3861 2.08942 3.16163C2.16518 2.93716 2.28693 2.73089 2.44694 2.55596C2.60694 2.38102 2.80169 2.24125 3.01879 2.14555C3.23589 2.04985 3.47057 2.00031 3.7079 2.00008H6.27217C6.68699 1.99601 7.08913 2.14261 7.40366 2.41257C7.71818 2.68252 7.92362 3.05741 7.98168 3.46735C8.08991 4.28635 8.29063 5.09049 8.58001 5.86445C8.69501 6.16978 8.7199 6.50162 8.65173 6.82063C8.58355 7.13965 8.42518 7.43248 8.19537 7.66441L7.10983 8.7478C8.32662 10.8835 10.0984 12.6518 12.2384 13.8662L13.3239 12.7828C13.5563 12.5534 13.8497 12.3954 14.1694 12.3273C14.489 12.2593 14.8215 12.2841 15.1274 12.3989C15.9029 12.6877 16.7087 12.888 17.5293 12.9961C17.9445 13.0545 18.3237 13.2632 18.5948 13.5825C18.8658 13.9018 19.0099 14.3094 18.9995 14.7278Z" fill="#3C3C3C"/>
	</symbol>
	<symbol id="checkmark" viewBox="0 0 14 14" fill="none">
		<path d="M11 4L4.8125 10L2 7.27273" stroke="currentColor" stroke-width="2" stroke-linecap="round" stroke-linejoin="round"/>
	</symbol>
	<symbol id="clock" viewBox="0 0 14 14" fill="none"><g stroke="#3C3C3C" stroke-linecap="round" stroke-linejoin="round" stroke-width="1.5" clip-path="url(#a)"><path d="M7 13.176A6.176 6.176 0 1 0 7 .823a6.176 6.176 0 0 0 0 12.353Z"/><path d="M6.59 4.117v3.706l2.47 1.235"/></g><defs><clipPath id="a"><path fill="#fff" d="M0 0h14v14H0z"/></clipPath></defs></symbol>
	<symbol id="curved-text" viewBox="0 0 84 26" fill="none">
		<path d="M8.94663 10.6533C9.12075 10.797 9.27026 11.0178 9.39516 11.3157C9.52963 11.602 9.62909 11.9129 9.69354 12.2486C9.76857 12.5833 9.79393 12.9014 9.76961 13.2028C9.76209 13.2355 9.75591 13.3376 9.75109 13.509C9.75583 13.6687 9.75834 13.8608 9.75862 14.0851C9.75788 14.2988 9.75083 14.5024 9.73746 14.696C9.73366 14.8779 9.71945 15.0075 9.69484 15.0846C9.71221 15.2645 9.68194 15.449 9.60404 15.638C9.53672 15.826 9.50116 16.011 9.49735 16.1929C9.45668 16.325 9.41072 16.4575 9.35946 16.5906C9.31879 16.7227 9.27334 16.8605 9.22311 17.0042C9.18244 17.1362 9.13647 17.2688 9.08522 17.4018C9.04455 17.5339 9.00388 17.6659 8.9632 17.798C8.76329 18.3832 8.49781 18.9532 8.16678 19.5081C7.83574 20.0631 7.48492 20.5237 7.11432 20.8901C6.86908 21.1164 6.62505 21.2999 6.38222 21.4405C6.14042 21.5917 5.9449 21.6691 5.79568 21.6726C5.68777 21.6615 5.58089 21.661 5.47503 21.6711C5.37019 21.6917 5.26006 21.7129 5.14464 21.7346C5.0398 21.7552 4.87845 21.7439 4.6606 21.7005C4.44377 21.6678 4.23548 21.6128 4.03574 21.5357C3.83702 21.4691 3.69754 21.4076 3.61731 21.3512C3.54766 21.2937 3.47853 21.2416 3.4099 21.1947C3.34026 21.1372 3.27061 21.0798 3.20096 21.0223C3.1419 20.9638 3.07806 20.9111 3.00944 20.8643C2.93979 20.8068 2.87014 20.7493 2.8005 20.6919C2.68646 20.6173 2.61956 20.5329 2.59978 20.4386C2.58956 20.3328 2.58445 20.2798 2.58445 20.2798C2.52233 20.1896 2.50426 20.0578 2.53026 19.8844C2.56582 19.6994 2.6415 19.5427 2.75729 19.4142C2.87309 19.2856 3.00866 19.2514 3.16402 19.3114C3.38596 19.397 3.52646 19.4691 3.58552 19.5276C3.64458 19.5861 3.69885 19.6503 3.74835 19.7204C3.75755 19.8157 3.8265 19.9213 3.9552 20.0372C4.0945 20.1521 4.2466 20.2338 4.41152 20.2822C4.47606 20.2867 4.5406 20.2912 4.60514 20.2958C4.68026 20.2993 4.75009 20.3034 4.81463 20.3079C4.87917 20.3124 4.94371 20.317 5.00824 20.3215C5.2507 20.2878 5.49079 20.1741 5.72851 19.9806C5.9652 19.7764 6.17869 19.5532 6.36895 19.3107C6.56878 19.0567 6.71448 18.8506 6.80603 18.6923C6.87642 18.5361 6.94202 18.3856 7.00284 18.241C7.07425 18.0953 7.14036 17.9501 7.20118 17.8055C7.27157 17.6492 7.33717 17.4988 7.39799 17.3541C7.4694 17.2085 7.53551 17.0633 7.59633 16.9187C7.6305 16.8299 7.65938 16.7417 7.68297 16.654C7.71714 16.5653 7.75131 16.4766 7.78548 16.3879C7.63727 16.402 7.45884 16.435 7.25019 16.4869C7.0511 16.5272 6.84193 16.5739 6.62269 16.6268C6.40344 16.6797 6.19377 16.721 5.99365 16.7507C5.80413 16.7795 5.63424 16.7903 5.48399 16.7832C5.30746 16.7253 5.17021 16.6315 5.07224 16.502C4.98486 16.3714 4.89919 16.2033 4.81524 15.9977C4.74188 15.791 4.74243 15.6307 4.81691 15.5168C4.89036 15.3923 4.99812 15.2913 5.14019 15.2137L6.33112 15.1003C6.61388 15.0413 6.91029 15.0131 7.22035 15.0157C7.541 15.0172 7.83262 14.9948 8.09523 14.9484C8.12699 14.9454 8.15875 14.9424 8.19051 14.9393C8.22226 14.9363 8.25351 14.928 8.28425 14.9144C8.26688 14.7345 8.26813 14.526 8.288 14.2891C8.30684 14.0417 8.30689 13.8761 8.28813 13.7924C8.29434 13.5248 8.28979 13.3116 8.27446 13.1528C8.25812 12.9835 8.24279 12.8247 8.22849 12.6765C8.22477 12.5273 8.22226 12.3353 8.22096 12.1004C8.20665 11.9522 8.1664 11.8118 8.10018 11.6793C8.03397 11.5467 7.94589 11.4643 7.83594 11.432C7.73454 11.3776 7.62938 11.3395 7.52045 11.3179C7.42109 11.2846 7.31797 11.2677 7.21109 11.2672C7.11377 11.2551 7.00689 11.2546 6.89044 11.2657C6.83444 11.2389 6.75027 11.2523 6.63791 11.3057C6.52452 11.3486 6.39833 11.4247 6.25932 11.534C6.12031 11.6434 5.97805 11.7744 5.83254 11.9272C5.82298 11.9387 5.80863 11.9561 5.7895 11.9793C5.77037 12.0025 5.75124 12.0257 5.73212 12.0489C5.68531 12.1174 5.63903 12.1913 5.59325 12.2704C5.54645 12.3389 5.49965 12.4075 5.45285 12.476C5.30938 12.6499 5.14033 12.7248 4.94569 12.7006C4.76164 12.6753 4.63345 12.5647 4.56111 12.3686C4.55906 12.3475 4.52647 12.2865 4.46332 12.1857C4.41076 12.0838 4.37204 11.9594 4.34715 11.8122C4.33182 11.6534 4.38103 11.4992 4.49479 11.3495C4.65227 11.0995 4.83297 10.8686 5.03689 10.657C5.25139 10.4443 5.4886 10.2454 5.74851 10.0605C5.80999 10.0333 5.86668 10.0118 5.91859 9.99621C5.98006 9.969 6.04204 9.94708 6.10454 9.93045C6.13221 9.88508 6.17678 9.8488 6.23825 9.82158C6.29973 9.79437 6.36751 9.77723 6.44162 9.77018C6.66392 9.74902 6.93368 9.77675 7.25089 9.85338C7.56811 9.93 7.88309 10.0389 8.19585 10.18C8.5086 10.3212 8.75886 10.4789 8.94663 10.6533ZM11.1539 20.089C10.9446 20.0235 10.7683 19.9121 10.6249 19.7549C10.4911 19.586 10.4119 19.3746 10.3874 19.1205C10.3772 19.0147 10.381 18.8327 10.3988 18.5747C10.4166 18.3166 10.4473 18.0253 10.4907 17.7007C10.5342 17.3761 10.5797 17.0726 10.6272 16.7904C10.7147 16.5898 10.7651 16.3927 10.7784 16.1992C10.8024 16.0046 10.8123 15.8862 10.8083 15.8438C10.8172 15.7148 10.8379 15.5419 10.8704 15.3252C10.9029 15.1084 10.9374 14.9129 10.974 14.7385C11.0201 14.5525 11.0528 14.4479 11.0719 14.4247C11.1197 14.3668 11.2066 14.3265 11.3326 14.3038C11.4587 14.2811 11.5872 14.2849 11.7183 14.3151C11.8484 14.3348 11.9398 14.3955 11.9923 14.4974C12.121 14.6133 12.2029 14.7978 12.2381 15.0508C12.2837 15.3028 12.2647 15.6037 12.181 15.9535C12.1061 16.1743 12.0349 16.4321 11.9672 16.7269C11.8995 17.0218 11.8403 17.2945 11.7897 17.545C11.7487 17.7839 11.727 17.9462 11.7245 18.0319L11.1514 18.0704C11.315 17.8839 11.4675 17.6931 11.6089 17.4981C11.7493 17.2925 11.8515 17.1332 11.9154 17.0203C12.0718 16.7597 12.2059 16.544 12.3176 16.3731C12.4389 16.1907 12.5941 15.9729 12.7834 15.7199C12.9716 15.4563 13.1829 15.2653 13.4171 15.1469C13.6504 15.0178 13.8253 14.9478 13.9417 14.9367C14.1787 14.9569 14.3969 15.0589 14.5962 15.2429C14.8052 15.4153 14.9492 15.69 15.0283 16.067C15.0426 16.2152 15.0436 16.3914 15.0313 16.5955C15.0295 16.7986 15.0286 16.9002 15.0286 16.9002C15.0286 16.9002 15.1031 16.7863 15.252 16.5585C15.4116 16.3297 15.6268 16.0688 15.8976 15.776C16.0845 15.6087 16.2721 15.5053 16.4606 15.466C16.6481 15.4161 16.8236 15.4635 16.9872 15.6082C17.2767 15.7302 17.5029 15.9704 17.6657 16.3287C17.8285 16.6871 17.9112 17.1012 17.9138 17.5709C17.9086 17.8492 17.93 18.0714 17.9781 18.2378C18.0358 18.3925 18.0919 18.5314 18.1465 18.6544C18.3025 18.8318 18.3401 18.9991 18.2591 19.1564C18.1771 19.303 18.0991 19.3799 18.025 19.387C17.9191 19.397 17.7583 19.391 17.5425 19.3688C17.3266 19.3466 17.1236 19.2912 16.9335 19.2024C16.7539 19.1127 16.6554 18.9779 16.638 18.7979L16.543 17.8136C16.5205 17.5807 16.4936 17.4124 16.4622 17.3085C16.4404 17.1931 16.4068 17.1215 16.3614 17.0938C16.2388 17.0414 16.1005 17.1026 15.9464 17.2775C15.7924 17.4524 15.6291 17.6976 15.4566 18.0131C15.2936 18.317 15.1183 18.6595 14.9308 19.0406C14.7613 19.3878 14.6166 19.6046 14.4967 19.6907C14.3758 19.7663 14.2536 19.7726 14.13 19.7096C13.8899 19.6577 13.732 19.5713 13.6563 19.4503C13.59 19.3177 13.5699 19.1648 13.5959 18.9914C13.6315 18.8064 13.6725 18.5675 13.719 18.2746C13.7762 17.9808 13.829 17.698 13.8775 17.4264C13.9251 17.1441 13.9533 16.9385 13.9622 16.8094C13.9117 16.7288 13.835 16.7094 13.7323 16.7512C13.639 16.7814 13.5431 16.8386 13.4443 16.9228C13.3255 17.0196 13.1965 17.1227 13.0575 17.232C12.9291 17.3404 12.7844 17.5571 12.6235 17.8822C12.5159 18.0954 12.3944 18.3313 12.2592 18.5899C12.1228 18.8378 11.9951 19.0636 11.8758 19.2673C11.7672 19.4699 11.6741 19.6123 11.5966 19.6944C11.5409 19.892 11.4838 20.0203 11.4254 20.0792C11.366 20.1276 11.2755 20.1309 11.1539 20.089ZM19.9208 19.6712C19.7832 19.6843 19.6695 19.6684 19.5797 19.6235C19.5005 19.5777 19.398 19.5126 19.2724 19.4285C19.0508 19.2359 18.8648 19.024 18.7142 18.7926C18.5743 18.5602 18.5115 18.3526 18.5259 18.1696C18.5495 18.0819 18.5524 18.0015 18.5347 17.9284C18.5265 17.8438 18.5224 17.8014 18.5224 17.8014C18.4644 17.7535 18.4454 17.7233 18.4656 17.7107C18.4847 17.6875 18.5028 17.6537 18.5199 17.6094C18.5834 17.6033 18.599 17.5431 18.5666 17.4287C18.5372 17.346 18.5516 17.1631 18.6097 16.8798C18.6774 16.5849 18.7784 16.3029 18.9127 16.0338C18.966 15.9219 19.048 15.7752 19.1587 15.5938C19.2683 15.4017 19.3891 15.214 19.5209 15.0305C19.6624 14.8355 19.7915 14.679 19.9083 14.5611C20.1515 14.3136 20.3776 14.1105 20.5866 13.9517C20.8062 13.7919 21.0299 13.6745 21.2577 13.5994C21.4855 13.5243 21.7211 13.4752 21.9646 13.452C22.2187 13.4278 22.4333 13.4929 22.6084 13.6471C22.8621 13.7298 23.0453 13.8565 23.1579 14.0274C23.2812 14.1973 23.3724 14.4236 23.4318 14.7064C23.4942 15.0209 23.5002 15.4155 23.4499 15.8903C23.3986 16.3545 23.1903 16.9085 22.8251 17.5521C22.5972 17.9583 22.3665 18.2794 22.1328 18.5153C21.8992 18.7511 21.6376 18.9737 21.348 19.1828C21.14 19.3522 20.9104 19.4648 20.6594 19.5208C20.4084 19.5767 20.1622 19.6268 19.9208 19.6712ZM21.3535 17.58C21.567 17.3567 21.7096 17.1188 21.7814 16.8663C21.8637 16.6128 21.9473 16.3164 22.0321 15.9772C22.0683 15.9097 22.0846 15.8013 22.0808 15.6521C22.0877 15.5019 22.0792 15.3585 22.0553 15.2219C22.0304 15.0747 21.9852 14.9936 21.9197 14.9785C21.8172 14.9134 21.7204 14.9066 21.6292 14.958C21.537 14.9989 21.4219 15.0793 21.2839 15.1992C20.9919 15.4941 20.7251 15.8292 20.4836 16.2047C20.2516 16.5686 20.1067 17.0044 20.0489 17.5119C20.0427 17.7795 20.0886 17.9781 20.1865 18.1077C20.2941 18.2256 20.4458 18.2486 20.6419 18.1765C20.8475 18.0928 21.0847 17.894 21.3535 17.58ZM27.4132 15.5291C27.2525 16.0785 27.175 16.604 27.1807 17.1055C27.197 17.606 27.313 18.0329 27.5287 18.3862C27.7434 18.729 28.0595 18.9606 28.4771 19.0811C28.5649 19.1048 28.6574 19.1227 28.7547 19.1348C28.8521 19.1469 28.9536 19.1479 29.0595 19.1378C29.3085 19.0607 29.5455 18.9153 29.7706 18.7016C29.9957 18.4879 30.1917 18.2502 30.3588 17.9887C30.5258 17.7271 30.6473 17.4912 30.7231 17.281C30.7894 17.0824 30.8563 16.8891 30.9236 16.7011C30.9899 16.5025 31.0562 16.304 31.1225 16.1054C31.2219 15.8075 31.2508 15.5537 31.2092 15.344C31.1782 15.1334 31.1711 14.8937 31.1879 14.625C31.1859 14.6039 31.1843 14.588 31.1833 14.5774C31.1929 14.5658 31.1971 14.5547 31.1961 14.5441C31.2166 14.4247 31.2387 14.3211 31.2623 14.2334C31.2848 14.1351 31.2741 14.024 31.2301 13.9C31.184 13.7548 31.1433 13.6092 31.1078 13.463C31.0829 13.3158 31.0527 13.1691 31.0172 13.023C30.9924 12.8758 30.9627 12.7344 30.9282 12.5988C30.8791 12.4219 30.8257 12.2561 30.768 12.1013C30.7104 11.9466 30.6373 11.7987 30.5489 11.6575C30.5363 11.6374 30.5242 11.6225 30.5126 11.6129C30.5105 11.5918 30.5037 11.5764 30.4921 11.5668C30.39 11.3949 30.2615 11.2256 30.1065 11.0587C29.9515 10.8919 29.7575 10.7074 29.5243 10.5053C29.4748 10.4352 29.5125 10.3835 29.6375 10.3503C29.7721 10.3054 29.9288 10.2691 30.1078 10.2414C30.2867 10.2137 30.4185 10.1958 30.5032 10.1878C30.6514 10.1737 30.7901 10.1712 30.9191 10.1802C31.0588 10.1883 31.1879 10.1974 31.3064 10.2075C31.4354 10.2165 31.5645 10.2256 31.6936 10.2347C31.7475 10.2402 31.7962 10.2463 31.8396 10.2528C31.8925 10.2478 31.9454 10.2428 31.9984 10.2377C32.1384 10.1389 32.2272 10.0077 32.2648 9.84384C32.3024 9.68003 32.3257 9.53362 32.3346 9.40458C32.1745 9.18482 32.0417 9.02655 31.9362 8.92977C31.8297 8.82241 31.6262 8.76166 31.3257 8.74754C31.186 8.73947 31.0474 8.74198 30.9098 8.75508C30.7711 8.75759 30.634 8.77599 30.4985 8.81025C30.3417 8.84654 30.1855 8.88811 30.0297 8.93498C29.8846 8.98084 29.74 9.032 29.5959 9.08844C29.4507 9.1343 29.3066 9.19075 29.1635 9.25778C29.03 9.31322 28.8975 9.37924 28.766 9.45585C28.6335 9.52187 28.4962 9.59369 28.3541 9.6713C28.2025 9.76051 28.1136 9.89181 28.0876 10.0652C28.0606 10.228 28.0913 10.38 28.1797 10.5211C28.2534 10.6209 28.3373 10.7144 28.4311 10.8016C28.5346 10.8772 28.6285 10.9644 28.7128 11.0632C28.8067 11.1504 28.9157 11.2842 29.04 11.4647C29.1642 11.6451 29.2784 11.8319 29.3825 12.0249C29.4962 12.2064 29.575 12.3591 29.619 12.4831C29.5439 12.4796 29.4814 12.4962 29.4316 12.533C29.3807 12.5592 29.3134 12.5816 29.2297 12.6003C28.9698 12.7852 28.7213 13.0332 28.4843 13.3442C28.2568 13.6436 28.0492 13.9838 27.8617 14.3648C27.6836 14.7343 27.5341 15.1224 27.4132 15.5291ZM28.3867 16.3177C28.4161 16.0692 28.4715 15.8129 28.5528 15.5488C28.6437 15.2731 28.7473 15.0176 28.8634 14.7822C28.9786 14.5362 29.0872 14.3336 29.1894 14.1744C29.3011 14.0035 29.4176 13.8268 29.5388 13.6444C29.6591 13.4513 29.7445 13.2296 29.7951 12.9791C29.9828 13.4846 30.0877 13.9073 30.1098 14.247C30.1309 14.5761 30.1161 14.8659 30.0655 15.1164C30.0255 15.3659 29.9865 15.626 29.9485 15.8967C29.9211 16.1663 29.877 16.3735 29.8162 16.5181C29.766 16.6618 29.7147 16.7948 29.6624 16.9173C29.6197 17.0282 29.5695 17.1718 29.5117 17.3483C29.4636 17.5131 29.3916 17.6534 29.296 17.7694C29.2109 17.8843 29.0812 17.9233 28.9067 17.8865C28.8507 17.8598 28.7952 17.8384 28.7402 17.8223C28.6842 17.7955 28.6282 17.7688 28.5722 17.7421C28.505 17.599 28.4485 17.4014 28.4028 17.1494C28.3572 16.8973 28.3518 16.6201 28.3867 16.3177ZM33.8067 18.75C33.2244 18.8055 32.7582 18.6789 32.4079 18.3704C32.0682 18.061 31.8646 17.5569 31.7972 16.8583C31.7604 16.4773 31.7889 16.0526 31.8826 15.5844C31.9868 15.1151 32.1345 14.6524 32.3255 14.1963C32.5271 13.7392 32.7555 13.3382 33.0106 12.9935C33.2648 12.6381 33.5286 12.3834 33.8022 12.2291C33.903 12.1661 34.0105 12.1185 34.1249 12.0863C34.2489 12.0424 34.3691 12.0149 34.4856 12.0039C34.6126 11.9918 34.7512 11.9893 34.9015 11.9963C35.0613 11.9918 35.2126 12.0094 35.3553 12.0493C35.6059 12.1002 35.8314 12.2229 36.0318 12.4175C36.2428 12.611 36.3677 12.9089 36.4065 13.3111C36.4168 13.417 36.4174 13.5344 36.4085 13.6635C36.3986 13.7819 36.3728 13.9019 36.3311 14.0233C36.2272 14.3857 36.0476 14.7393 35.7924 15.084C35.5479 15.4278 35.2782 15.6778 34.9835 15.834C34.9029 15.8844 34.8212 15.9242 34.7386 15.9535C34.6655 15.9711 34.5866 15.9839 34.5019 15.992C34.2796 16.0132 34.0754 16.0006 33.8893 15.9542C33.7138 15.9068 33.5469 15.8372 33.3884 15.7455L33.2507 15.6464L33.1866 15.8128C33.1319 16.0209 33.0953 16.1953 33.0769 16.3359C33.069 16.4756 33.0681 16.5771 33.0742 16.6406C33.0865 16.7677 33.1045 16.8995 33.1284 17.036C33.1513 17.1621 33.1932 17.2649 33.2543 17.3445C33.3018 17.3934 33.3588 17.4307 33.4254 17.4564C33.5026 17.4811 33.5941 17.4884 33.6999 17.4784C33.7634 17.4723 33.8217 17.4668 33.8746 17.4617C33.9371 17.4451 33.989 17.4295 34.0303 17.4149C34.2168 17.3544 34.3636 17.271 34.4709 17.1646C34.5877 17.0467 34.7114 16.9441 34.8418 16.8569L34.9023 16.8191L34.8818 16.773C35.0526 16.6606 35.1687 16.5908 35.2302 16.5636C35.2906 16.5258 35.3357 16.4948 35.3654 16.4706C35.4037 16.4242 35.4493 16.3985 35.5022 16.3935C35.6483 16.3582 35.7953 16.387 35.9432 16.4797C36.1006 16.5609 36.1864 16.6755 36.2007 16.8237C36.2069 16.8872 36.1689 16.9923 36.0869 17.139C36.0155 17.2847 35.9177 17.4328 35.7933 17.5835C35.6786 17.7226 35.5559 17.8358 35.4255 17.923C35.3947 17.9366 35.3645 17.9555 35.3348 17.9797C35.3041 17.9933 35.2738 18.0122 35.2441 18.0364L35.26 18.0349C35.177 18.171 35.0878 18.2435 34.9926 18.2526L34.8655 18.2647C34.8303 18.3428 34.7004 18.4353 34.4757 18.5422C34.252 18.6596 34.029 18.7289 33.8067 18.75ZM34.263 14.8451C34.3583 14.836 34.4415 14.8121 34.5125 14.7733C34.5941 14.7334 34.6699 14.6888 34.74 14.6394C34.9767 14.4353 35.1183 14.1868 35.1648 13.894C35.2113 13.6012 35.1639 13.3867 35.0226 13.2506C34.9983 13.2209 34.9698 13.2022 34.937 13.1946C34.9032 13.1765 34.8652 13.1694 34.8228 13.1735C34.7064 13.1846 34.5776 13.2342 34.4366 13.3224C34.3061 13.4096 34.1787 13.5285 34.0544 13.6792C33.93 13.8299 33.8188 14.0061 33.7208 14.2077L33.5465 14.5608C33.5667 14.5482 33.582 14.5414 33.5926 14.5404C33.6128 14.5278 33.6281 14.521 33.6387 14.5199C33.734 14.5109 33.8006 14.5366 33.8385 14.5971C33.8764 14.6576 33.9195 14.7175 33.968 14.777C34.0271 14.8355 34.1254 14.8582 34.263 14.8451ZM39.7894 17.748C39.6579 17.8246 39.5017 17.8661 39.3207 17.8727C39.1397 17.8792 38.8906 17.8442 38.5734 17.7676C38.5522 17.7696 38.4735 17.729 38.3373 17.6458C38.2011 17.5627 38.0633 17.4636 37.924 17.3487C37.7847 17.2338 37.6898 17.136 37.6393 17.0553C37.4464 16.828 37.3588 16.4732 37.3763 15.9908C37.4044 15.5074 37.5186 14.9197 37.7189 14.2277C37.7777 14.0619 37.8694 13.8502 37.9941 13.5926C38.1294 13.3341 38.2615 13.0972 38.3903 12.882C38.5286 12.6552 38.628 12.5229 38.6885 12.4851C38.6885 12.4851 38.7447 12.4584 38.857 12.4049C38.9694 12.3515 39.1109 12.2686 39.2817 12.1562C39.3326 12.13 39.42 12.095 39.544 12.0511C39.6785 12.0063 39.8136 11.9667 39.9492 11.9324C40.0943 11.8866 40.1939 11.8664 40.2478 11.872C40.4606 11.8624 40.6852 11.9211 40.9219 12.0482C41.168 12.1636 41.3744 12.3095 41.541 12.4859C41.7066 12.6518 41.7695 12.806 41.7299 12.9486C41.7319 12.9698 41.7068 13.0416 41.6545 13.1641C41.6118 13.275 41.5643 13.3917 41.5121 13.5142C41.4588 13.6261 41.4135 13.7105 41.3763 13.7674C41.3295 13.836 41.2367 13.8715 41.0981 13.874C40.97 13.8755 40.8495 13.8443 40.7365 13.7803C40.6235 13.7162 40.5556 13.6212 40.5327 13.4952C40.5034 13.4126 40.4163 13.3407 40.2715 13.2797C40.1373 13.2177 40.0703 13.1867 40.0703 13.1867C39.9856 13.1948 39.8826 13.2901 39.7613 13.4725C39.64 13.655 39.5155 13.8591 39.3878 14.0849C39.2156 14.2936 39.0979 14.5131 39.0347 14.7434C38.981 14.9621 38.9475 15.1683 38.9341 15.3618C38.9303 15.5438 38.9171 15.6839 38.8946 15.7822C38.8624 15.8921 38.8752 16.0244 38.9329 16.1791C38.9905 16.3339 39.0522 16.4188 39.1177 16.4339C39.214 16.4354 39.3405 16.4181 39.4973 16.3818C39.6636 16.3339 39.8347 16.2802 40.0106 16.2207C40.196 16.1497 40.3814 16.0786 40.5669 16.0076C40.7513 15.9259 40.9145 15.8463 41.0566 15.7687C41.2455 15.6225 41.4156 15.5583 41.5668 15.5759C41.7171 15.583 41.8303 15.5936 41.9064 15.6077C42.027 15.6389 42.0939 15.7234 42.1072 15.861C42.1204 15.9986 42.0871 16.1513 42.0071 16.3191C41.9262 16.4764 41.8003 16.6112 41.6295 16.7236C41.4683 16.8244 41.324 16.9343 41.1966 17.0532C41.0788 17.1606 41.0224 17.2407 41.0275 17.2936C40.9852 17.2977 40.9391 17.3181 40.8892 17.3549C40.8489 17.3801 40.8124 17.3889 40.7796 17.3813C40.7584 17.3833 40.6753 17.4073 40.5301 17.4531C40.385 17.499 40.2351 17.5506 40.0804 17.6081C39.9363 17.6645 39.8393 17.7112 39.7894 17.748ZM43.8634 17.4082C43.5881 17.4344 43.3962 17.3833 43.2877 17.2547C43.1781 17.1156 43.0718 16.9548 42.9687 16.7724C42.9513 16.5924 42.9589 16.3941 42.9914 16.1774C43.0335 15.949 43.0904 15.7086 43.1622 15.4561C43.2329 15.193 43.3042 14.9352 43.3759 14.6827C43.3928 14.414 43.4423 14.1529 43.5247 13.8994C43.6071 13.6459 43.6688 13.3997 43.7098 13.1608C43.7529 12.943 43.7917 12.7364 43.8262 12.5408C43.8703 12.3337 43.9155 12.1371 43.9616 11.9511C43.9473 11.8029 43.9615 11.6734 44.0042 11.5625C44.0565 11.44 44.1272 11.3425 44.2164 11.2699C44.3055 11.1973 44.4083 11.1555 44.5247 11.1444C44.6453 11.1757 44.732 11.1888 44.7849 11.1837C44.8485 11.1777 44.9004 11.1621 44.9407 11.1369C44.9905 11.1001 45.1002 11.0736 45.2695 11.0575C45.4389 11.0414 45.6189 11.0243 45.8094 11.0061C46 10.988 46.1424 10.9691 46.2366 10.9494C46.4156 10.9217 46.5759 10.9225 46.7176 10.9517C46.8593 10.981 46.999 10.989 47.1366 10.9759C47.3671 11.0395 47.5885 11.1199 47.8009 11.2171C48.0228 11.3028 48.2002 11.4248 48.333 11.5831C48.4763 11.7404 48.5502 11.9523 48.5546 12.2189C48.5371 12.3701 48.5328 12.5468 48.5416 12.7489C48.561 12.95 48.5212 13.1461 48.4221 13.3371C48.4187 13.4122 48.3811 13.576 48.3093 13.8285C48.2365 14.0705 48.1595 14.3235 48.0781 14.5876C48.0074 14.8507 47.9685 15.0574 47.9617 15.2076C47.9477 15.2837 47.9341 15.3651 47.9211 15.4518C47.9081 15.5385 47.8952 15.6252 47.8822 15.7118C47.8657 15.8736 47.8435 16.0306 47.8154 16.1829C47.7864 16.3245 47.7293 16.4528 47.6443 16.5677C47.5104 16.73 47.3418 16.8101 47.1386 16.8081C46.9344 16.7955 46.7564 16.7216 46.6045 16.5865C46.4525 16.4515 46.3769 16.2771 46.3777 16.0633C46.3685 15.9681 46.3653 15.8242 46.3681 15.6316C46.3708 15.4391 46.3746 15.2571 46.3795 15.0858C46.3904 14.9779 46.4087 14.8907 46.4344 14.8242C46.4695 14.7461 46.4904 14.6853 46.4969 14.642C46.5868 14.3557 46.6635 14.044 46.7271 13.7068C46.8013 13.3686 46.8564 13.0535 46.8923 12.7617C46.9272 12.4593 46.9418 12.2229 46.936 12.0525C46.7878 12.0666 46.6142 12.0939 46.4151 12.1342C46.2255 12.1629 46.0466 12.1906 45.8783 12.2173C45.7205 12.243 45.6045 12.2594 45.5304 12.2664C45.4669 12.2725 45.4304 12.2813 45.4208 12.2929C45.4102 12.2939 45.4022 12.3214 45.3967 12.3753C45.3588 12.646 45.2974 12.9509 45.2126 13.2901C45.1374 13.6177 45.0851 13.9058 45.0556 14.1543C45.0532 14.24 45.0237 14.3763 44.9669 14.5633C44.9092 14.7397 44.8482 14.9378 44.7839 15.1575C44.7186 15.3667 44.6634 15.5696 44.6183 15.7661C44.5722 15.9521 44.5489 16.0985 44.5485 16.2054C44.4922 16.2855 44.459 16.3848 44.4491 16.5033C44.4497 16.6207 44.4499 16.7329 44.4495 16.8397C44.4361 17.0333 44.369 17.1678 44.2481 17.2434C44.1368 17.3075 44.0085 17.3624 43.8634 17.4082ZM49.5035 16.9515C49.3936 16.9192 49.2899 16.8971 49.1926 16.885C49.0953 16.8729 48.9922 16.856 48.8833 16.8343C48.7788 16.7481 48.6844 16.6556 48.6001 16.5568C48.5253 16.4464 48.4712 16.3287 48.4378 16.2037C48.3822 16.0702 48.372 15.9643 48.4071 15.8862C48.4519 15.7965 48.4787 15.6871 48.4877 15.5581C48.5618 15.551 48.6306 15.5445 48.6941 15.5384C48.7682 15.5314 48.8423 15.5243 48.9164 15.5173C49.0534 15.3867 49.1873 15.2244 49.3181 15.0304C49.4595 14.8353 49.5893 14.6307 49.7075 14.4165C49.8066 14.2255 49.8951 14.0355 49.973 13.8464C50.0615 13.6564 50.1193 13.48 50.1463 13.3172C50.1678 13.2083 50.1793 13.1058 50.1807 13.0095C50.1927 12.9122 50.2152 12.8139 50.2484 12.7147C50.273 12.6375 50.2923 12.5609 50.3063 12.4848C50.3309 12.4077 50.3555 12.3306 50.3801 12.2535C50.251 12.2444 50.1421 12.2227 50.0533 12.1884C49.9752 12.1532 49.8959 12.1073 49.8157 12.0508C49.745 11.9828 49.658 11.9109 49.5545 11.8353C49.5266 11.6564 49.5219 11.4966 49.5403 11.356C49.5694 11.2144 49.6544 11.0995 49.7955 11.0113C49.8358 10.9861 49.8766 10.9662 49.9179 10.9515C49.9688 10.9253 50.0202 10.9044 50.0721 10.8888C50.2238 10.7996 50.4218 10.7487 50.6663 10.7361C50.9098 10.7129 51.1448 10.7119 51.3711 10.7331C51.4357 10.7376 51.5002 10.7422 51.5648 10.7467C51.6293 10.7513 51.6891 10.7616 51.744 10.7777C51.8413 10.7898 51.9349 10.8183 52.0247 10.8632C52.1251 10.907 52.2244 10.9403 52.3228 10.963C52.4095 10.9761 52.4973 10.9998 52.586 11.0341C52.6748 11.0683 52.7588 11.1084 52.838 11.1543C53.063 11.2717 53.2498 11.4355 53.3983 11.6457C53.5573 11.8549 53.6486 12.0812 53.6721 12.3247C53.7058 12.674 53.6899 13.0066 53.6242 13.3227C53.5907 13.5288 53.5466 13.736 53.4919 13.9441C53.4478 14.1513 53.409 14.3579 53.3755 14.5641C53.3539 14.6729 53.3324 14.7818 53.3108 14.8907C53.2883 14.989 53.2715 15.092 53.2606 15.1999C53.2346 15.3733 53.2197 15.551 53.2159 15.7329C53.211 15.9043 53.2125 16.0857 53.2203 16.2773C53.1483 16.3055 53.0714 16.3395 52.9898 16.3793C52.9178 16.4075 52.8404 16.4363 52.7578 16.4655C52.616 16.4363 52.4569 16.3927 52.2804 16.3347C52.1145 16.2757 51.9878 16.1809 51.9004 16.0504C51.8868 16.0197 51.8731 15.9889 51.8595 15.9582C51.8458 15.9274 51.8322 15.8967 51.8185 15.8659C51.8049 15.8352 51.7965 15.8039 51.7934 15.7722C51.7904 15.7404 51.7873 15.7087 51.7842 15.6769C51.7522 15.4556 51.7562 15.2203 51.7962 14.9708C51.8458 14.7097 51.8964 14.4592 51.948 14.2193C51.9846 14.0449 52.0222 13.8811 52.0608 13.7278C52.109 13.563 52.1424 13.4103 52.1608 13.2697C52.1728 13.1724 52.1938 13.0582 52.2239 12.9272C52.253 12.7856 52.2667 12.6507 52.265 12.5227C52.2654 12.4158 52.2451 12.3163 52.2041 12.2241C52.1355 12.1772 52.0631 12.1467 51.987 12.1326C51.9108 12.1185 51.8294 12.1048 51.7427 12.0917C51.7427 12.0917 51.7223 12.1578 51.6817 12.2898C51.6721 12.3014 51.663 12.3183 51.6545 12.3405C51.6565 12.3616 51.6586 12.3828 51.6606 12.404C51.635 12.4705 51.6104 12.5476 51.5868 12.6353C51.5622 12.7124 51.5429 12.7891 51.5289 12.8652C51.5213 12.8979 51.5138 12.9307 51.5063 12.9634C51.4988 12.9962 51.4907 13.0237 51.4822 13.0459C51.4576 13.123 51.4378 13.1943 51.4227 13.2598C51.4173 13.3137 51.415 13.346 51.416 13.3566C51.4198 13.5058 51.4018 13.6517 51.3622 13.7943C51.3321 13.9254 51.2962 14.0516 51.2545 14.1731C51.2118 14.284 51.1643 14.4007 51.112 14.5232C51.0587 14.635 51.0112 14.7517 50.9695 14.8732C50.963 14.9165 50.9507 14.9551 50.9326 14.9889C50.9145 15.0226 50.8969 15.0617 50.8798 15.1061C50.818 15.2401 50.7508 15.3747 50.6784 15.5098C50.606 15.6449 50.5277 15.7751 50.4437 15.9006C50.3245 16.1043 50.1878 16.2935 50.0338 16.4684C49.8797 16.6433 49.703 16.8043 49.5035 16.9515ZM55.711 16.0883C55.587 16.1321 55.4405 16.1087 55.2715 16.0179C55.1025 15.9272 54.9468 15.8085 54.8045 15.6618C54.6621 15.5151 54.5689 15.3798 54.5249 15.2558C54.4611 15.0376 54.4457 14.7666 54.4785 14.4431C54.521 14.1079 54.6095 13.7523 54.7441 13.3763C54.8777 12.9897 55.0547 12.6097 55.2751 12.2362C55.4944 11.8521 55.7491 11.5021 56.0391 11.1861C56.3291 10.8701 56.6517 10.615 57.0068 10.421C57.1575 10.3212 57.2635 10.2577 57.325 10.2305C57.3854 10.1927 57.4489 10.1866 57.5155 10.2123C57.5811 10.2275 57.6973 10.2698 57.8643 10.3394C58.0166 10.3676 58.1699 10.4064 58.3243 10.4558C58.4882 10.4936 58.636 10.5864 58.7678 10.7341C58.8678 10.8848 58.9466 11.0375 59.0043 11.1922C59.062 11.347 59.1164 11.5234 59.1675 11.7215C59.2778 11.978 59.3264 12.1497 59.3134 12.2364C59.2994 12.3125 59.2732 12.3737 59.235 12.4201C59.1605 12.534 59.1444 12.5889 59.1868 12.5849C59.1868 12.5849 59.1835 12.6066 59.177 12.6499C59.1801 12.6817 59.164 12.7366 59.1288 12.8147C59.0772 13.0546 59.0404 13.2825 59.0185 13.4982C59.0062 13.7023 59.0288 13.8818 59.0865 14.0365C59.1937 14.2613 59.3181 14.3883 59.4598 14.4176C59.6121 14.4458 59.7935 14.3324 60.0039 14.0774C60.1122 13.9816 60.2394 13.9161 60.3855 13.8808C60.5307 13.8349 60.6073 13.8544 60.6155 13.939C60.6155 13.939 60.6329 13.9534 60.6677 13.9821C60.7015 14.0003 60.7396 14.0073 60.782 14.0033C60.8349 13.9983 60.8612 14.0492 60.8608 14.156C60.8594 14.2523 60.849 14.3654 60.8295 14.4955C60.81 14.6255 60.7778 14.7354 60.7331 14.8251C60.5896 14.999 60.5204 15.1124 60.5255 15.1653C60.5255 15.1653 60.5064 15.1885 60.4682 15.2349C60.4395 15.2697 60.3864 15.3281 60.3088 15.4103C60.1295 15.5449 59.8916 15.6262 59.5952 15.6545C59.3094 15.6817 59.0815 15.6446 58.9115 15.5433C58.7414 15.442 58.5688 15.3142 58.3937 15.16C58.2292 15.0047 58.1186 14.855 58.0619 14.7108L57.9672 14.5596L57.5358 14.9051C57.4306 15.0326 57.3546 15.1307 57.3078 15.1992C57.26 15.2572 57.2169 15.3093 57.1787 15.3557C57.151 15.4011 57.1175 15.4417 57.0783 15.4774C57.0496 15.5122 57.014 15.5316 56.9717 15.5356C56.9294 15.5397 56.8923 15.5432 56.8605 15.5462C56.8288 15.5493 56.8129 15.5508 56.8129 15.5508C56.817 15.5931 56.7485 15.6584 56.6075 15.7466C56.4654 15.8242 56.3069 15.898 56.1321 15.9681C55.9572 16.0381 55.8169 16.0782 55.711 16.0883ZM55.9157 14.7229C55.9792 14.7168 56.0709 14.6707 56.1908 14.5845C56.3203 14.4867 56.4588 14.3721 56.6063 14.2405C56.7539 14.109 56.8855 13.9789 57.0013 13.8504C57.1277 13.7209 57.2191 13.6161 57.2755 13.5359C57.3137 13.4895 57.3547 13.4162 57.3984 13.3159C57.4528 13.2146 57.5134 13.1234 57.5804 13.0422C57.7973 12.7439 57.9298 12.5123 57.978 12.3474C58.0252 12.172 57.9813 11.9946 57.8465 11.8152C57.7929 11.7028 57.7339 11.6443 57.6693 11.6398C57.6048 11.6352 57.476 11.6849 57.2831 11.7887C57.1632 11.8749 57.0373 12.0097 56.9055 12.1932C56.7736 12.3766 56.6385 12.5818 56.5002 12.8086C56.3724 13.0344 56.2557 13.2645 56.1501 13.4988C56.0445 13.7332 55.9581 13.9444 55.8908 14.1324C55.834 14.3194 55.8108 14.4658 55.821 14.5716C55.8251 14.614 55.8393 14.65 55.8635 14.6798C55.8983 14.7085 55.9157 14.7229 55.9157 14.7229ZM62.0313 15.2463C61.822 15.1808 61.6457 15.0694 61.5023 14.9121C61.3685 14.7433 61.2893 14.5318 61.2648 14.2778C61.2546 14.172 61.2584 13.99 61.2762 13.7319C61.294 13.4739 61.3247 13.1825 61.3681 12.8579C61.4116 12.5334 61.4571 12.2299 61.5046 11.9477C61.5921 11.7471 61.6425 11.55 61.6559 11.3565C61.6798 11.1619 61.6898 11.0434 61.6857 11.0011C61.6946 10.8721 61.7153 10.6992 61.7478 10.4825C61.7803 10.2657 61.8148 10.0702 61.8514 9.89578C61.8975 9.70979 61.9302 9.60521 61.9493 9.58202C61.9971 9.52406 62.0841 9.48374 62.2101 9.46106C62.3361 9.43839 62.4646 9.44217 62.5958 9.47242C62.7259 9.49208 62.8172 9.55282 62.8697 9.65464C62.9985 9.77057 63.0804 9.95505 63.1155 10.2081C63.1612 10.4601 63.1421 10.761 63.0584 11.1108C62.9835 11.3316 62.9123 11.5894 62.8446 11.8842C62.7769 12.1791 62.7177 12.4518 62.6671 12.7023C62.6261 12.9412 62.6044 13.1035 62.602 13.1891L62.0288 13.2277C62.1924 13.0412 62.3449 12.8504 62.4863 12.6554C62.6267 12.4497 62.7289 12.2905 62.7928 12.1776C62.9492 11.917 63.0833 11.7013 63.195 11.5304C63.3163 11.348 63.4716 11.1302 63.6608 10.8772C63.849 10.6136 64.0603 10.4226 64.2946 10.3041C64.5278 10.1751 64.7027 10.1051 64.8191 10.094C65.0561 10.1142 65.2743 10.2162 65.4737 10.4002C65.6826 10.5726 65.8266 10.8473 65.9057 11.2243C65.9201 11.3725 65.921 11.5487 65.9087 11.7528C65.9069 11.9559 65.906 12.0575 65.906 12.0575C65.906 12.0575 65.9805 11.9436 66.1295 11.7158C66.289 11.4869 66.5042 11.2261 66.7751 10.9333C66.9619 10.7659 67.1496 10.6626 67.3381 10.6233C67.5255 10.5734 67.7011 10.6208 67.8646 10.7655C68.1541 10.8875 68.3803 11.1276 68.5431 11.486C68.7059 11.8444 68.7886 12.2585 68.7912 12.7282C68.786 13.0064 68.8074 13.2287 68.8555 13.3951C68.9132 13.5498 68.9693 13.6887 69.024 13.8116C69.18 13.9891 69.2175 14.1564 69.1365 14.3137C69.0545 14.4603 68.9765 14.5372 68.9024 14.5442C68.7965 14.5543 68.6357 14.5483 68.4199 14.5261C68.2041 14.5039 68.0011 14.4484 67.8109 14.3597C67.6313 14.27 67.5328 14.1352 67.5154 13.9552L67.4204 12.9709C67.3979 12.738 67.371 12.5696 67.3396 12.4658C67.3178 12.3504 67.2842 12.2788 67.2388 12.2511C67.1162 12.1987 66.9779 12.2599 66.8238 12.4348C66.6698 12.6097 66.5065 12.8549 66.334 13.1704C66.171 13.4743 65.9957 13.8168 65.8082 14.1978C65.6387 14.5451 65.494 14.7618 65.3741 14.848C65.2532 14.9236 65.131 14.9299 65.0074 14.8669C64.7674 14.815 64.6094 14.7285 64.5337 14.6076C64.4675 14.475 64.4473 14.322 64.4733 14.1487C64.5089 13.9637 64.5499 13.7248 64.5965 13.4319C64.6536 13.1381 64.7064 12.8553 64.755 12.5836C64.8025 12.3014 64.8307 12.0957 64.8396 11.9667C64.7891 11.8861 64.7125 11.8667 64.6097 11.9085C64.5164 11.9387 64.4205 11.9959 64.3218 12.0801C64.2029 12.1769 64.074 12.2799 63.935 12.3893C63.8065 12.4977 63.6619 12.7144 63.5009 13.0395C63.3933 13.2527 63.2719 13.4886 63.1366 13.7471C63.0003 13.9951 62.8725 14.2209 62.7533 14.4245C62.6446 14.6272 62.5515 14.7695 62.474 14.8517C62.4183 15.0493 62.3612 15.1775 62.3028 15.2365C62.2434 15.2849 62.1529 15.2882 62.0313 15.2463ZM74.5262 8.6573C74.6662 8.55851 74.8489 8.51442 75.0743 8.52501C75.2986 8.52502 75.4873 8.59786 75.6402 8.74353C75.8037 8.8882 75.8585 9.12333 75.8044 9.44893C75.7703 9.53764 75.727 9.64323 75.6748 9.76571C75.6225 9.88819 75.5712 10.0212 75.521 10.1649C75.4697 10.298 75.418 10.4257 75.3657 10.5482C75.324 10.6697 75.2967 10.7738 75.2837 10.8604L75.2883 10.9081C75.4194 10.9383 75.509 11.0366 75.5571 11.2029C75.6158 11.3683 75.6328 11.4895 75.6082 11.5666C75.5454 11.6901 75.489 11.7702 75.4391 11.807C75.3998 11.8428 75.2928 11.8957 75.1179 11.9658C75.0766 11.9804 75.0406 11.9945 75.0098 12.0081C74.9897 12.0207 74.9764 12.0487 74.9699 12.092C74.9575 12.2962 74.9389 12.4902 74.9139 12.6742C74.8985 12.8466 74.8725 13.02 74.8359 13.1943C74.8089 13.3571 74.7771 13.5257 74.7405 13.7001C74.7275 13.7868 74.6938 13.8808 74.6395 13.9821C74.5852 14.0834 74.4532 14.1548 74.2435 14.1961C74.0236 14.1316 73.8645 14.088 73.7662 14.0653C73.6774 14.031 73.5987 13.9904 73.5301 13.9435C73.4625 13.9072 73.4205 13.8044 73.4041 13.6351C73.3984 13.4647 73.4105 13.314 73.4406 13.1829C73.4782 13.0191 73.5126 12.877 73.5437 12.7565C73.5844 12.6245 73.6131 12.4241 73.6299 12.1555C73.5134 12.1666 73.4033 12.1877 73.2995 12.219C73.2052 12.2386 73.1115 12.2636 73.0183 12.2938C72.9346 12.3125 72.8462 12.3369 72.7529 12.3671C72.6703 12.3964 72.5818 12.4208 72.4876 12.4405C72.4241 12.4465 72.3553 12.4531 72.2811 12.4601C72.207 12.4672 72.1329 12.4742 72.0588 12.4813C71.9837 12.4777 71.8975 12.4699 71.8002 12.4578L71.7413 12.5115C71.7409 12.6184 71.707 12.7658 71.6397 12.9538C71.582 13.1302 71.5618 13.3084 71.5791 13.4883C71.5818 13.6269 71.568 13.8152 71.5375 14.0531C71.5166 14.2794 71.508 14.4671 71.5118 14.6163C71.5236 14.8502 71.4046 15.0004 71.1546 15.0669C70.9162 15.143 70.624 15.048 70.2778 14.7819C70.2324 14.7541 70.197 14.7201 70.1718 14.6798C70.1571 14.6385 70.1361 14.587 70.1088 14.5256L70.2305 13.2962C70.2586 13.144 70.2823 13.0029 70.3018 12.8728C70.3203 12.7322 70.3446 12.5964 70.3747 12.4653C70.4369 12.2244 70.4976 11.9676 70.5567 11.6949C70.6148 11.4117 70.6839 11.1861 70.7638 11.0183C70.7809 10.9739 70.796 10.9084 70.809 10.8217C70.8325 10.734 70.8556 10.641 70.8782 10.5427C70.9007 10.4444 70.9238 10.3514 70.9474 10.2637C70.971 10.176 70.9908 10.1047 71.0069 10.0498C71.039 9.93991 71.0771 9.78139 71.1212 9.57424C71.1749 9.35549 71.2248 9.15313 71.2709 8.96714C71.3171 8.78115 71.3397 8.68287 71.3386 8.67228C71.3592 8.55283 71.4155 8.47269 71.5077 8.43187C71.5989 8.38046 71.6763 8.35173 71.7398 8.34569C72.0785 8.31345 72.3201 8.38125 72.4645 8.5491C72.6089 8.71694 72.683 8.87547 72.6867 9.02466C72.6822 9.08917 72.6826 9.14789 72.6877 9.20082C72.6928 9.25374 72.6863 9.29709 72.6682 9.33086L72.1253 11.1771L72.1012 11.2595C72.207 11.2494 72.3119 11.2288 72.4157 11.1975C72.5291 11.1547 72.6387 11.1282 72.7445 11.1182C72.7965 11.1025 72.8748 11.0844 72.9797 11.0637C73.0951 11.0421 73.2216 11.0247 73.3592 11.0116C73.5074 10.9975 73.6572 10.9992 73.8084 11.0169C73.9144 10.6757 73.9932 10.3851 74.0448 10.1452C74.0954 9.89468 74.1911 9.61318 74.3319 9.30068C74.3404 9.27851 74.3544 9.2024 74.3739 9.07236C74.403 8.93073 74.4537 8.79237 74.5262 8.6573ZM77.8515 14.1571C77.7139 14.1702 77.6002 14.1543 77.5104 14.1095C77.4312 14.0636 77.3287 13.9986 77.2031 13.9144C76.9815 13.7218 76.7955 13.5099 76.6449 13.2785C76.505 13.0462 76.4422 12.8385 76.4566 12.6555C76.4802 12.5678 76.4831 12.4874 76.4654 12.4144C76.4572 12.3297 76.4531 12.2873 76.4531 12.2873C76.3951 12.2395 76.3761 12.2092 76.3963 12.1966C76.4154 12.1734 76.4335 12.1397 76.4506 12.0953C76.5141 12.0893 76.5297 12.029 76.4973 11.9146C76.4679 11.8319 76.4823 11.649 76.5404 11.3657C76.6081 11.0709 76.7091 10.7889 76.8434 10.5197C76.8967 10.4078 76.9787 10.2612 77.0894 10.0797C77.199 9.88767 77.3198 9.69993 77.4516 9.51646C77.5931 9.32141 77.7222 9.16491 77.839 9.04698C78.0822 8.79951 78.3083 8.59639 78.5173 8.43763C78.7369 8.27786 78.9606 8.16043 79.1884 8.08534C79.4162 8.01025 79.6518 7.96112 79.8953 7.93794C80.1494 7.91376 80.364 7.97879 80.5391 8.13303C80.7928 8.2157 80.976 8.34247 81.0886 8.51334C81.2119 8.68321 81.3031 8.90952 81.3625 9.19228C81.4249 9.5068 81.4309 9.90146 81.3806 10.3763C81.3293 10.8405 81.121 11.3944 80.7558 12.038C80.5279 12.4443 80.2972 12.7653 80.0635 13.0012C79.8299 13.2371 79.5683 13.4596 79.2787 13.6688C79.0706 13.8381 78.8411 13.9507 78.5901 14.0067C78.3391 14.0626 78.0929 14.1128 77.8515 14.1571ZM79.2842 12.0659C79.4977 11.8427 79.6403 11.6048 79.7121 11.3522C79.7944 11.0987 79.878 10.8023 79.9628 10.4631C79.999 10.3956 80.0152 10.2872 80.0115 10.138C80.0184 9.98784 80.0099 9.84444 79.986 9.70785C79.9611 9.56067 79.9159 9.47952 79.8504 9.4644C79.7479 9.39937 79.6511 9.39256 79.5599 9.44397C79.4677 9.48479 79.3526 9.56518 79.2146 9.68514C78.9226 9.97998 78.6558 10.3152 78.4143 10.6906C78.1823 11.0545 78.0374 11.4903 77.9796 11.9978C77.9734 12.2655 78.0193 12.4641 78.1172 12.5936C78.2248 12.7116 78.3765 12.7345 78.5726 12.6624C78.7782 12.5788 79.0154 12.3799 79.2842 12.0659Z" fill="#F8A63E"/>
		<path d="M3.92188 25.1393C25.9704 21.0003 72.6541 13.3611 83.0009 15.9154" stroke="#F8A63E" stroke-width="1.08756"/>
	</symbol>
	<symbol id="plus" viewBox="0 0 20 20" fill="none"><path stroke="#BABABA" stroke-linecap="square" stroke-linejoin="round" stroke-width="2" d="M10 4v12M4 10h12"/></symbol>
	<symbol id="sended" viewBox="0 0 40 40" fill="none" xmlns="http://www.w3.org/2000/svg"><path d="M28.77 14.04 16.71 25.97l-5.48-5.43" stroke="#fff" stroke-width="4" stroke-linecap="round" stroke-linejoin="round"/><circle cx="20" cy="20" r="18" stroke="#fff" stroke-width="4"/></symbol>
	<symbol id="arrow" viewBox="0 0 24 22" width="24" fill="none"><path stroke="currentColor" stroke-linecap="round" stroke-width="2.429" d="m4 6.75 8 8 8-8"/></symbol>
	<symbol id="close" viewBox="0 0 24 24" fill="none">
		<path stroke="currentColor" stroke-linecap="round" stroke-linejoin="round" stroke-width="2" d="m6.343 6.343 11.314 11.314M17.657 6.343 6.343 17.657"/>
	</symbol>
</svg>
