<svg xmlns="http://www.w3.org/2000/svg">
	<symbol id="logo" viewBox="0 0 96 20" fill="none">
		<path d="M12.1792 2V5.64671H3.90789V9.46475H10.7886V13.038H3.90789V19.328H0V2H12.1792Z" fill="#3C3C3C"/>
		<path d="M17.1287 19.328H13.3646V6.4299H17.1287V19.328Z" fill="#3C3C3C"/>
		<path d="M22.7653 7.84943C23.3248 7.2294 23.9321 6.79702 24.5874 6.55227C25.2427 6.30753 25.8741 6.177 26.4814 6.16068C27.2806 6.16068 27.9759 6.29937 28.5672 6.57675C29.1746 6.83781 29.6861 7.20493 30.1016 7.67811C30.5651 8.24918 30.8848 8.91815 31.0606 9.68502C31.2364 10.4519 31.3243 11.3003 31.3243 12.2304V19.328H27.5363V12.5486C27.5363 12.1896 27.5044 11.8388 27.4404 11.4961C27.3765 11.1535 27.2566 10.8435 27.0808 10.5661C26.905 10.2887 26.6652 10.0766 26.3616 9.92977C26.0579 9.7666 25.6823 9.68502 25.2347 9.68502C24.7553 9.70134 24.3557 9.8074 24.036 10.0032C23.7163 10.199 23.4686 10.4519 23.2928 10.7619C23.117 11.0556 22.9891 11.3819 22.9092 11.7409C22.8453 12.0998 22.8133 12.4588 22.8133 12.8178V19.328H19.0493V6.4299H22.5735L22.7653 7.84943Z" fill="#3C3C3C"/>
		<path d="M40.7264 19.328L40.7024 17.6637C40.4147 18.0716 40.0711 18.4143 39.6715 18.6917C39.2879 18.9527 38.8563 19.1567 38.3768 19.3035C37.9133 19.4504 37.3379 19.5238 36.6507 19.5238C36.0913 19.5238 35.5638 19.4504 35.0683 19.3035C34.5888 19.1404 34.1493 18.8875 33.7497 18.5448C33.3501 18.1859 33.0305 17.7535 32.7907 17.2477C32.567 16.7419 32.4551 16.1463 32.4551 15.461C32.4551 14.7268 32.6229 14.0823 32.9586 13.5275C33.2942 12.9565 33.7337 12.5241 34.2772 12.2304C34.8206 11.9367 35.4359 11.7409 36.1232 11.643C36.8265 11.5288 37.5617 11.4717 38.3289 11.4717H40.5825C40.5825 10.868 40.4067 10.3785 40.0551 10.0032C39.7194 9.62792 39.216 9.44028 38.5447 9.44028C38.0812 9.42396 37.6496 9.50554 37.25 9.68502C36.8505 9.8645 36.6107 10.15 36.5308 10.5416H32.6948C32.7907 9.75845 33.0145 9.08947 33.3661 8.53472C33.7178 7.96364 34.1573 7.50678 34.6847 7.16414C35.2282 6.80518 35.8195 6.55227 36.4589 6.40543C37.1142 6.24226 37.7935 6.16068 38.4967 6.16068C39.6315 6.16068 40.5665 6.32384 41.3018 6.65017C42.037 6.9765 42.6204 7.4252 43.0519 7.99628C43.4995 8.55103 43.8031 9.21185 43.963 9.97872C44.1388 10.7456 44.2267 11.5451 44.2267 12.3772V19.328H40.7264ZM40.6065 13.8702H38.4008C37.7135 13.8702 37.1781 13.9844 36.7945 14.2128C36.4269 14.4413 36.2431 14.7757 36.2431 15.2163C36.2431 15.6405 36.3869 15.9668 36.6746 16.1953C36.9783 16.4237 37.3779 16.5379 37.8734 16.5379C38.225 16.5379 38.5607 16.489 38.8803 16.3911C39.216 16.2768 39.5117 16.1055 39.7674 15.8771C40.0391 15.6487 40.2469 15.3713 40.3907 15.045C40.5346 14.7023 40.6065 14.3107 40.6065 13.8702Z" fill="#3C3C3C"/>
		<path d="M49.5749 7.84943C50.1343 7.2294 50.7417 6.79702 51.397 6.55227C52.0523 6.30753 52.6837 6.177 53.291 6.16068C54.0902 6.16068 54.7855 6.29937 55.3768 6.57675C55.9842 6.83781 56.4957 7.20493 56.9112 7.67811C57.3747 8.24918 57.6944 8.91815 57.8702 9.68502C58.046 10.4519 58.1339 11.3003 58.1339 12.2304V19.328H54.3459V12.5486C54.3459 12.1896 54.3139 11.8388 54.25 11.4961C54.1861 11.1535 54.0662 10.8435 53.8904 10.5661C53.7146 10.2887 53.4748 10.0766 53.1712 9.92977C52.8675 9.7666 52.4919 9.68502 52.0443 9.68502C51.5648 9.70134 51.1653 9.8074 50.8456 10.0032C50.5259 10.199 50.2782 10.4519 50.1024 10.7619C49.9266 11.0556 49.7987 11.3819 49.7188 11.7409C49.6549 12.0998 49.6229 12.4588 49.6229 12.8178V19.328H45.8588V6.4299H49.3831L49.5749 7.84943Z" fill="#3C3C3C"/>
		<path d="M65.5461 16.0484C66.1215 16.0484 66.585 15.9097 66.9366 15.6323C67.2882 15.3387 67.504 14.9797 67.5839 14.5555H71.4678C71.3879 15.4202 71.1801 16.1626 70.8445 16.7827C70.5088 17.4027 70.0693 17.9166 69.5259 18.3246C68.9984 18.7325 68.3911 19.0343 67.7038 19.2301C67.0165 19.4259 66.3053 19.5238 65.57 19.5238C63.5242 19.5238 61.9498 18.9446 60.847 17.7861C59.7602 16.6276 59.2167 14.9879 59.2167 12.8667C59.2167 11.8388 59.3686 10.9088 59.6722 10.0766C59.9759 9.24448 60.3995 8.54287 60.9429 7.9718C61.5023 7.38441 62.1736 6.93571 62.9568 6.6257C63.7559 6.31569 64.659 6.16068 65.6659 6.16068C66.4331 6.16068 67.1524 6.26674 67.8237 6.47885C68.495 6.69096 69.0783 7.00913 69.5738 7.43336C70.0853 7.84127 70.4929 8.36339 70.7965 8.99973C71.1162 9.61976 71.316 10.3458 71.3959 11.178H67.5839C67.488 10.7374 67.2643 10.3866 66.9126 10.1256C66.561 9.84819 66.1055 9.7095 65.5461 9.7095C65.0666 9.7095 64.659 9.8074 64.3233 10.0032C63.9877 10.1827 63.724 10.4274 63.5322 10.7374C63.3404 11.0311 63.2045 11.3738 63.1246 11.7654C63.0447 12.1406 63.0047 12.5241 63.0047 12.9157C63.0047 13.3562 63.0447 13.7641 63.1246 14.1394C63.2205 14.4984 63.3724 14.8247 63.5801 15.1184C63.7879 15.3958 64.0516 15.6242 64.3713 15.8037C64.691 15.9668 65.0826 16.0484 65.5461 16.0484Z" fill="#3C3C3C"/>
		<path d="M78.4018 16.3176C78.8973 16.3176 79.3128 16.2361 79.6485 16.0729C79.9841 15.8934 80.2318 15.6487 80.3917 15.3387H84.2276C84.0518 16.0892 83.7801 16.7255 83.4125 17.2477C83.0449 17.7698 82.5974 18.2022 82.0699 18.5448C81.5425 18.8875 80.9591 19.1404 80.3198 19.3035C79.6964 19.4504 79.0411 19.5238 78.3538 19.5238C76.3559 19.5238 74.7976 18.9446 73.6787 17.7861C72.5759 16.6113 72.0245 14.9552 72.0245 12.8178C72.0245 11.8714 72.1683 10.9903 72.456 10.1745C72.7597 9.35869 73.1753 8.65709 73.7027 8.0697C74.2462 7.46599 74.9015 7.00098 75.6687 6.67465C76.4518 6.332 77.3309 6.16068 78.3059 6.16068C79.2809 6.16068 80.1439 6.31569 80.8951 6.6257C81.6464 6.93571 82.2777 7.37625 82.7892 7.94733C83.3006 8.5184 83.6842 9.19553 83.9399 9.97872C84.2117 10.7619 84.3475 11.6104 84.3475 12.5241C84.3475 12.7851 84.3315 13.038 84.2996 13.2828C84.2836 13.5112 84.2516 13.7641 84.2037 14.0415H75.8125C75.8764 14.6615 76.1082 15.1918 76.5078 15.6323C76.9233 16.0729 77.5547 16.3013 78.4018 16.3176ZM80.7273 11.4472C80.7273 10.8435 80.5116 10.3458 80.08 9.95424C79.6644 9.56265 79.0891 9.36685 78.3538 9.36685C77.5387 9.36685 76.9313 9.57897 76.5317 10.0032C76.1322 10.4111 75.9084 10.8924 75.8604 11.4472H80.7273Z" fill="#3C3C3C"/>
		<path d="M90.27 9.3179C89.9344 9.3179 89.6067 9.37501 89.2871 9.48923C88.9834 9.60344 88.8316 9.82371 88.8316 10.15C88.8316 10.3785 88.8955 10.5661 89.0233 10.713C89.1672 10.8435 89.4229 10.9577 89.7905 11.0556C90.4299 11.2351 91.1092 11.3819 91.8284 11.4961C92.5476 11.6104 93.2109 11.798 93.8183 12.0591C94.4257 12.3038 94.9371 12.6709 95.3527 13.1604C95.7682 13.6499 95.984 14.3515 96 15.2652C95.984 16.0647 95.8162 16.7337 95.4965 17.2721C95.1929 17.8106 94.7933 18.2511 94.2978 18.5938C93.8183 18.9364 93.2669 19.1812 92.6435 19.328C92.0202 19.4585 91.3968 19.5238 90.7735 19.5238C90.0862 19.5238 89.4069 19.4504 88.7357 19.3035C88.0644 19.1567 87.457 18.9119 86.9136 18.5693C86.3701 18.2103 85.9066 17.7535 85.523 17.1987C85.1554 16.644 84.9237 15.9424 84.8278 15.0939H88.7117C88.8076 15.5345 89.0473 15.8608 89.4309 16.0729C89.8305 16.2687 90.294 16.3666 90.8215 16.3666C91.1571 16.3666 91.4848 16.3013 91.8044 16.1708C92.1241 16.0239 92.2839 15.7874 92.2839 15.461C92.2839 15.2163 92.212 15.0286 92.0681 14.8981C91.9243 14.7513 91.7405 14.637 91.5167 14.5555C91.3089 14.4576 91.0772 14.3923 90.8215 14.3597C90.5657 14.3107 90.31 14.2618 90.0543 14.2128C89.4309 14.0823 88.8236 13.9354 88.2322 13.7723C87.6568 13.5928 87.1373 13.3562 86.6738 13.0625C86.2263 12.7525 85.8587 12.3854 85.571 11.9612C85.2993 11.5206 85.1634 10.9577 85.1634 10.2724C85.1634 9.52186 85.3152 8.88552 85.6189 8.36339C85.9226 7.82495 86.3142 7.40073 86.7937 7.09072C87.2892 6.76439 87.8486 6.5278 88.4719 6.38095C89.1113 6.2341 89.7586 6.16068 90.4139 6.16068C91.0852 6.16068 91.7245 6.24226 92.3319 6.40543C92.9552 6.55227 93.4986 6.79702 93.9621 7.13966C94.4257 7.48231 94.8093 7.93101 95.1129 8.48577C95.4166 9.02421 95.6004 9.67687 95.6644 10.4437H91.9962C91.9483 10.0195 91.7565 9.72581 91.4208 9.56265C91.1012 9.39949 90.7176 9.3179 90.27 9.3179Z" fill="#3C3C3C"/>
		<path d="M16.8648 1.08076C16.4406 0.677637 15.8986 0.476074 15.2388 0.476074C14.6262 0.476074 14.0921 0.677637 13.6365 1.08076C13.1809 1.48389 12.9531 2.0402 12.9531 2.7497C12.9531 3.50757 13.1731 4.08001 13.6129 4.467C14.0685 4.854 14.6105 5.0475 15.2388 5.0475C15.8986 5.0475 16.4406 4.854 16.8648 4.467C17.3046 4.06388 17.5246 3.49144 17.5246 2.7497C17.5246 2.0402 17.3046 1.48389 16.8648 1.08076Z" fill="#F8A63E"/>
	</symbol>
	<symbol id="logo-white" viewBox="0 0 117 40" fill="none"><path fill="#fff" d="M31.182 20.997a11.254 11.254 0 0 1-5.275 5.183 11.123 11.123 0 0 1-7.326.763 11.199 11.199 0 0 1-6.215-3.987 11.364 11.364 0 0 1-2.42-7.015c0-2.546.853-5.018 2.42-7.015a11.2 11.2 0 0 1 6.215-3.986 11.124 11.124 0 0 1 7.326.763 11.254 11.254 0 0 1 5.275 5.183l4.114-2.076a15.867 15.867 0 0 0-7.438-7.308A15.684 15.684 0 0 0 17.528.426a15.79 15.79 0 0 0-8.761 5.621 16.023 16.023 0 0 0-3.412 9.891c0 3.59 1.203 7.075 3.412 9.89a15.79 15.79 0 0 0 8.762 5.622c3.465.825 7.105.445 10.33-1.076a15.867 15.867 0 0 0 7.437-7.308l-4.114-2.07Z"/><path fill="#33C369" d="M39.42 25.145a20.498 20.498 0 0 1-7.453 8.269 20.262 20.262 0 0 1-10.64 3.116 20.258 20.258 0 0 1-10.685-2.956 20.49 20.49 0 0 1-7.574-8.155L0 27.019a23.973 23.973 0 0 0 8.86 9.527 23.703 23.703 0 0 0 12.49 3.453 23.707 23.707 0 0 0 12.438-3.637 23.982 23.982 0 0 0 8.72-9.656l-3.088-1.56Z"/><path fill="#fff" d="M59.18 18.748a4.894 4.894 0 0 1-1.82 1.855 4.841 4.841 0 0 1-2.507.653c-3.078 0-5.311-2.245-5.311-5.335s2.233-5.339 5.31-5.339a4.834 4.834 0 0 1 2.48.637 4.885 4.885 0 0 1 1.815 1.817l.187.337 1.538-.89-.19-.337a6.688 6.688 0 0 0-2.475-2.44 6.617 6.617 0 0 0-3.354-.86c-4.01 0-7.052 3.034-7.052 7.058s3.031 7.054 7.052 7.054a6.605 6.605 0 0 0 3.388-.879 6.675 6.675 0 0 0 2.477-2.492l.184-.337-1.534-.89-.187.388ZM64.886 13.666v-.906h-1.671v10.013h1.67v-5.524c0-2.74 2.046-2.956 2.675-2.956h.384v-1.661h-.384a3.555 3.555 0 0 0-2.674 1.034ZM74.08 12.558c-2.972 0-5.13 2.19-5.13 5.223 0 3.034 2.185 5.207 5.2 5.207 1.854 0 3.469-.849 4.32-2.275l.201-.337-1.48-.91-.19.337c-.502.927-1.562 1.477-2.832 1.477-1.744 0-3.078-1.059-3.428-2.676h8.234v-.357a1.932 1.932 0 0 1 0-.196v-.25c0-2.54-1.707-5.243-4.896-5.243Zm0 1.665c.76-.006 1.499.268 2.075.77a3.173 3.173 0 0 1 1.056 1.96h-6.48a3.305 3.305 0 0 1 1.166-2 3.254 3.254 0 0 1 2.182-.73ZM89.528 14.075a4.716 4.716 0 0 0-1.607-1.138 4.681 4.681 0 0 0-1.928-.379 5.147 5.147 0 0 0-3.569 1.572 5.233 5.233 0 0 0-1.467 3.637c0 1.359.527 2.664 1.467 3.637a5.146 5.146 0 0 0 3.569 1.572 4.68 4.68 0 0 0 1.937-.376 4.715 4.715 0 0 0 1.615-1.141v1.314h1.688V9.066h-1.688l-.017 5.009Zm-3.495 7.236a3.495 3.495 0 0 1-1.96-.59 3.538 3.538 0 0 1-1.304-1.589 3.573 3.573 0 0 1 .756-3.873 3.489 3.489 0 0 1 3.84-.767c.643.27 1.192.728 1.578 1.313.385.586.589 1.274.585 1.977a3.525 3.525 0 0 1-1.014 2.503 3.467 3.467 0 0 1-2.481 1.026ZM98.861 12.558c-2.971 0-5.127 2.19-5.127 5.21s2.19 5.207 5.2 5.207c1.856 0 3.473-.85 4.325-2.275l.201-.337-1.484-.896-.191.337c-.501.927-1.56 1.476-2.83 1.476-1.748 0-3.078-1.058-3.433-2.676h8.232V17.8c.017-2.54-1.705-5.243-4.893-5.243Zm0 1.665c.762-.007 1.5.267 2.076.77.577.502.952 1.198 1.056 1.96h-6.477a3.302 3.302 0 0 1 1.164-2 3.251 3.251 0 0 1 2.181-.73ZM82.354 7.563h-2.062l-1.948 3.12h1.791l2.22-3.12ZM110.818 12.557a5.133 5.133 0 0 0-2.864.885 5.197 5.197 0 0 0-1.896 2.34 5.252 5.252 0 0 0-.29 3.007 5.23 5.23 0 0 0 1.414 2.664 5.156 5.156 0 0 0 2.643 1.424 5.127 5.127 0 0 0 2.982-.294 5.18 5.18 0 0 0 2.319-1.913 5.25 5.25 0 0 0 .876-2.89 5.228 5.228 0 0 0-.381-2.007 5.17 5.17 0 0 0-1.123-1.702 5.13 5.13 0 0 0-1.689-1.131 5.09 5.09 0 0 0-1.991-.383Zm0 8.762a3.495 3.495 0 0 1-1.964-.58 3.542 3.542 0 0 1-1.311-1.584 3.578 3.578 0 0 1-.214-2.052c.132-.69.465-1.326.956-1.825a3.5 3.5 0 0 1 3.838-.781 3.522 3.522 0 0 1 1.582 1.308 3.57 3.57 0 0 1 .592 1.976 3.51 3.51 0 0 1-1.008 2.498 3.458 3.458 0 0 1-2.471 1.03v.01Z"/></symbol>
</svg>
